<svg width="117" height="34" viewBox="0 0 117 34" fill="none" xmlns="http://www.w3.org/2000/svg">
<path d="M85.1424 28.0711V24.6067C86.7006 24.602 88.1936 23.9869 89.2954 22.8956C90.3972 21.8044 91.0182 20.3256 91.023 18.7823V15.4783C91.0159 13.9366 90.3937 12.4601 89.2922 11.3708C88.1907 10.2814 86.699 9.66748 85.1424 9.6628V6.23406C87.6201 6.22712 90.0009 7.18696 91.7693 8.9058C92.6497 9.761 93.3478 10.7827 93.822 11.9102C94.2962 13.0377 94.5368 14.248 94.5297 15.4694V18.7734C94.53 19.993 94.2871 21.2006 93.8149 22.327C93.3427 23.4534 92.6506 24.4763 91.7783 25.337C90.9152 26.2114 89.8823 26.9037 88.7418 27.372C87.6014 27.8404 86.377 28.0752 85.1424 28.0622V28.0711ZM113.484 27.4477V15.4783C113.425 13.9741 112.78 12.5512 111.684 11.5078C110.589 10.4644 109.128 9.8816 107.608 9.8816C106.088 9.8816 104.628 10.4644 103.532 11.5078C102.437 12.5512 101.792 13.9741 101.732 15.4783V27.421C100.574 27.1982 99.3834 27.1982 98.2253 27.421V15.4783C98.2239 14.2572 98.4662 13.0479 98.9384 11.9199C99.4106 10.792 100.103 9.76761 100.977 8.9058C102.289 7.60736 103.959 6.72282 105.778 6.36382C107.597 6.00482 109.482 6.18744 111.196 6.88863C112.91 7.58982 114.376 8.77816 115.409 10.3037C116.442 11.8293 116.996 13.6237 117 15.4605V27.4032C115.836 27.1996 114.643 27.2147 113.484 27.4477ZM60.9817 27.4477V15.4783C60.9746 13.9381 60.3537 12.463 59.2541 11.3739C58.1545 10.2848 56.6652 9.66983 55.1101 9.6628V6.23406C56.3401 6.23172 57.5585 6.4695 58.6956 6.9338C59.8328 7.39811 60.8664 8.07983 61.7374 8.94001C62.6083 9.80018 63.2996 10.8219 63.7717 11.9469C64.2437 13.0718 64.4873 14.2779 64.4885 15.4961V27.4032C63.3271 27.1997 62.1374 27.2148 60.9817 27.4477ZM85.1424 6.23406V9.6628C84.3719 9.66356 83.609 9.815 82.8977 10.1084C82.1864 10.4019 81.5405 10.8315 80.9972 11.3727C80.4459 11.9072 80.0089 12.5462 79.7123 13.2515C79.4157 13.9569 79.2656 14.7142 79.2708 15.4783V18.7823C79.2756 20.3241 79.8954 21.8015 80.9953 22.8925C82.0951 23.9835 83.5858 24.5997 85.1424 24.6067V28.0711C83.9098 28.0954 82.6854 27.8666 81.5464 27.3991C80.4074 26.9316 79.3785 26.2356 78.5245 25.3548C76.7655 23.6101 75.7734 21.2479 75.7641 18.7823V15.4783C75.7626 14.2572 76.005 13.0479 76.4772 11.9199C76.9494 10.792 77.6421 9.76761 78.5155 8.9058C80.2898 7.19587 82.6668 6.23757 85.1424 6.23406ZM55.1101 27.2339C55.7122 27.2195 56.3143 27.2613 56.9085 27.3586V19.3434C56.3155 19.4529 55.7133 19.5065 55.1101 19.5037V27.2339ZM72.0685 0V27.3853C70.9016 27.1921 69.7081 27.2224 68.5527 27.4744V0C69.7139 0.222553 70.9073 0.222553 72.0685 0V0ZM55.1101 9.6628C53.5535 9.66748 52.0619 10.2814 50.9603 11.3708C49.8588 12.4601 49.2367 13.9366 49.2296 15.4783V19.4147C48.071 19.1965 46.8813 19.1965 45.7228 19.4147V15.4961C45.7622 13.0772 46.7038 10.7583 48.3664 8.98596C50.1581 7.22101 52.5831 6.23145 55.1101 6.23406V9.68061V9.6628ZM55.1101 19.4592C54.507 19.4614 53.9049 19.4078 53.3118 19.2989V27.4032C53.9031 27.2762 54.5052 27.2046 55.1101 27.1894V19.5037V19.4592ZM41.6586 0V4.06105C40.5198 4.43472 39.2926 4.45337 38.1428 4.11448V0C39.3039 0.222553 40.4974 0.222553 41.6586 0V0ZM41.6586 7.04449V27.4299C40.4974 27.2073 39.3039 27.2073 38.1428 27.4299V7.12464C39.3044 7.34288 40.497 7.34288 41.6586 7.12464V7.04449ZM3.50676 7.12464V18.7912C3.47582 19.5747 3.60489 20.3563 3.88624 21.0891C4.1676 21.8219 4.59545 22.491 5.14414 23.0561C5.69284 23.6212 6.35109 24.0708 7.07944 24.3779C7.80778 24.6851 8.59124 24.8434 9.38284 24.8434C10.1744 24.8434 10.9579 24.6851 11.6862 24.3779C12.4146 24.0708 13.0728 23.6212 13.6215 23.0561C14.1702 22.491 14.5981 21.8219 14.8794 21.0891C15.1608 20.3563 15.2899 19.5747 15.2589 18.7912V7.0623C16.4209 7.27598 17.6127 7.27598 18.7747 7.0623V18.7823C18.8341 20.2865 19.4792 21.7094 20.5746 22.7528C21.6701 23.7962 23.1309 24.379 24.6507 24.379C26.1706 24.379 27.6314 23.7962 28.7268 22.7528C29.8223 21.7094 30.4674 20.2865 30.5268 18.7823V7.0623C31.6849 7.28503 32.8755 7.28503 34.0336 7.0623V18.7823C34.0339 20.7508 33.4028 22.6685 32.2313 24.2587C31.0599 25.8489 29.4087 27.0293 27.5159 27.6298C25.6232 28.2302 23.5868 28.2196 21.7005 27.5994C19.8143 26.9792 18.1757 25.7816 17.0213 24.1793C15.865 25.7797 14.2257 26.9754 12.3396 27.5943C10.4534 28.2132 8.41763 28.2234 6.52526 27.6234C4.63289 27.0234 2.98155 25.8441 1.80895 24.2554C0.636351 22.6666 0.00297508 20.7503 0 18.7823L0 6.99106C1.15008 7.25331 2.33974 7.29863 3.50676 7.12464Z" fill="#242424"/>
</svg>
