<svg width="20" height="20" viewBox="0 0 20 20" fill="none" xmlns="http://www.w3.org/2000/svg">
<path fill-rule="evenodd" clip-rule="evenodd" d="M10.6453 18.5748C12.464 16.8642 17.5 11.8184 17.5 8.39587C17.5 4.21922 14.1421 0.833374 10 0.833374C5.85786 0.833374 2.5 4.21922 2.5 8.39587C2.5 11.8184 7.53604 16.8642 9.35472 18.5748C9.72096 18.9193 10.279 18.9193 10.6453 18.5748ZM10 11.6667C11.8409 11.6667 13.3333 10.1743 13.3333 8.33337C13.3333 6.49242 11.8409 5.00004 10 5.00004C8.15905 5.00004 6.66667 6.49242 6.66667 8.33337C6.66667 10.1743 8.15905 11.6667 10 11.6667Z" fill="black" fill-opacity="0.64"/>
</svg>
